<?xml version="1.0" encoding="UTF-8"?>
<svg width="58px" height="11px" viewBox="0 0 58 11" version="1.1" xmlns="http://www.w3.org/2000/svg" xmlns:xlink="http://www.w3.org/1999/xlink">
    <!-- Generator: Sketch 56.2 (81672) - https://sketch.com -->
    <title>naver_mail_logo</title>
    <desc>Created with Sketch.</desc>
    <g id="Page-1" stroke="none" stroke-width="1" fill="none" fill-rule="evenodd">
        <g id="naver_mail_logo" fill="#03C75A" fill-rule="nonzero">
            <path d="M16.6,0 L12.3,11 L16,11 L16.5,9.5 L20.6,9.5 L21.1,11 L24.8,11 L20.4,0 L16.6,0 Z M17.3,6.9 L18.5,3.5 L19.7,6.9 L17.3,6.9 Z" id="Shape"></path>
            <polygon id="Path" points="40 6.8 45 6.8 45 4.2 40 4.2 40 2.7 45.1 2.7 45.1 0 36.5 0 36.5 11 45.2 11 45.2 8.3 40 8.3"></polygon>
            <polygon id="Path" points="29.1 7.2 26.5 0 22.9 0 27.2 11 31.1 11 35.4 0 31.7 0"></polygon>
            <polygon id="Path" points="7.6 5.9 3.5 0 0.1 0 0.1 11 3.6 11 3.6 5.1 7.7 11 11.1 11 11.1 0 7.6 0"></polygon>
            <path d="M54.6,7.2 L54.9,7.1 C56.2,6.6 56.8,5.4 56.8,3.9 C56.8,2.5 56.3,1.5 55.3,0.8 C54.4,0.3 53.2,0 51.6,0 L47,0 L47,11 L50.5,11 L50.5,7.9 L51.7,7.9 L53.8,11 L57.5,11 L54.6,7.2 Z M52.2,5.1 L50.3,5.1 L50.3,2.8 L52.2,2.8 C52.8,2.8 53.4,3.3 53.4,4 C53.4,4.7 52.8,5.1 52.2,5.1 Z" id="Shape"></path>
        </g>
    </g>
</svg>